<svg width="20" height="32" viewBox="0 0 20 32" fill="none" xmlns="http://www.w3.org/2000/svg">
<path d="M8.22148 15.9328L18.9815 5.18095C19.5476 4.61188 19.8654 3.84208 19.8654 3.03968C19.8654 2.23728 19.5476 1.46748 18.9815 0.898416C18.6989 0.613739 18.3627 0.387783 17.9923 0.233585C17.6219 0.0793879 17.2247 0 16.8234 0C16.4221 0 16.0249 0.0793879 15.6545 0.233585C15.2841 0.387783 14.9479 0.613739 14.6653 0.898416L1.77763 13.7764C1.49274 14.0587 1.26662 14.3947 1.1123 14.7648C0.957989 15.1349 0.87854 15.5319 0.87854 15.9328C0.87854 16.3338 0.957989 16.7308 1.1123 17.1009C1.26662 17.471 1.49274 17.8069 1.77763 18.0893L14.6653 31.1191C14.9493 31.4006 15.2862 31.6233 15.6565 31.7745C16.0268 31.9256 16.4234 32.0023 16.8234 31.9999C17.2234 32.0023 17.62 31.9256 17.9903 31.7745C18.3606 31.6233 18.6975 31.4006 18.9815 31.1191C19.5476 30.5501 19.8654 29.7803 19.8654 28.9779C19.8654 28.1755 19.5476 27.4057 18.9815 26.8366L8.22148 15.9328Z" fill="white"/>
</svg>
