<svg width="70" height="66" viewBox="0 0 70 66" fill="none" xmlns="http://www.w3.org/2000/svg">
<path d="M9.64589 35.2009C9.08943 36.0293 6.31136 40.2746 6.31136 42.5567C6.2743 43.5659 6.5605 44.5605 7.1282 45.3954C7.6959 46.2303 8.51538 46.8618 9.46706 47.1978V49.342C9.46706 49.6211 9.57789 49.8889 9.77516 50.0863C9.97243 50.2837 10.24 50.3946 10.519 50.3946C10.7979 50.3946 11.0655 50.2837 11.2628 50.0863C11.46 49.8889 11.5709 49.6211 11.5709 49.342V47.1978C12.5225 46.8618 13.342 46.2303 13.9097 45.3954C14.4774 44.5605 14.7636 43.5659 14.7266 42.5567C14.7266 40.2746 11.9485 36.0304 11.392 35.2009C11.2902 35.0656 11.1583 34.9557 11.0068 34.8801C10.8553 34.8045 10.6883 34.7651 10.519 34.7651C10.3496 34.7651 10.1826 34.8045 10.0311 34.8801C9.87962 34.9557 9.74774 35.0656 9.64589 35.2009ZM11.5709 44.8851V42.1051C11.5709 41.8259 11.46 41.5582 11.2628 41.3608C11.0655 41.1634 10.7979 41.0525 10.519 41.0525C10.24 41.0525 9.97243 41.1634 9.77516 41.3608C9.57789 41.5582 9.46706 41.8259 9.46706 42.1051V44.8862C9.12565 44.604 8.85334 44.2474 8.671 43.8436C8.48867 43.4398 8.40115 42.9996 8.41516 42.5567C8.41516 41.6157 9.46706 39.5104 10.519 37.7567C11.5709 39.5104 12.6228 41.6157 12.6228 42.5567C12.6368 42.9996 12.5493 43.4398 12.3669 43.8436C12.1846 44.2474 11.9123 44.603 11.5709 44.8851ZM31.7673 43.5788C31.2056 44.3304 28.4013 48.1872 28.4013 50.2999C28.388 51.26 28.6894 52.198 29.2593 52.9706C29.8291 53.7431 30.6362 54.3076 31.557 54.5777V55.7893C31.557 56.0685 31.6678 56.3362 31.8651 56.5336C32.0623 56.731 32.3299 56.8419 32.6089 56.8419C32.8878 56.8419 33.1554 56.731 33.3527 56.5336C33.5499 56.3362 33.6608 56.0685 33.6608 55.7893V54.5788C34.5816 54.3088 35.3888 53.7443 35.9587 52.9718C36.5286 52.1992 36.8299 51.2611 36.8165 50.3009C36.8165 48.1883 34.0131 44.3314 33.4504 43.5799C33.3482 43.4555 33.2198 43.3552 33.0744 43.2864C32.9289 43.2176 32.77 43.1818 32.6091 43.1817C32.4482 43.1816 32.2893 43.2172 32.1437 43.2858C31.9982 43.3545 31.8697 43.4545 31.7673 43.5788ZM33.6608 52.3072V50.5262C33.6608 50.247 33.5499 49.9792 33.3527 49.7818C33.1554 49.5844 32.8878 49.4735 32.6089 49.4735C32.3299 49.4735 32.0623 49.5844 31.8651 49.7818C31.6678 49.9792 31.557 50.247 31.557 50.5262V52.3072C31.2285 52.087 30.9602 51.7881 30.7765 51.4377C30.5928 51.0873 30.4995 50.6965 30.5051 50.3009C30.5051 49.482 31.5622 47.6009 32.6089 46.0356C33.6555 47.6009 34.7127 49.482 34.7127 50.3009C34.7182 50.6965 34.6249 51.0873 34.4412 51.4377C34.2575 51.7881 33.9892 52.087 33.6608 52.3072ZM48.3874 34.5788V35.7893C48.3874 36.0685 48.4982 36.3363 48.6955 36.5337C48.8927 36.7311 49.1603 36.842 49.4393 36.842C49.7182 36.842 49.9858 36.7311 50.1831 36.5337C50.3803 36.3363 50.4912 36.0685 50.4912 35.7893V34.5788C51.412 34.3088 52.2192 33.7444 52.7891 32.9718C53.359 32.1992 53.6603 31.2611 53.6469 30.3009C53.6469 28.1883 50.8435 24.3315 50.2808 23.5799C50.1785 23.4555 50.0501 23.3554 49.9046 23.2867C49.7591 23.2179 49.6002 23.1823 49.4393 23.1823C49.2784 23.1823 49.1195 23.2179 48.974 23.2867C48.8285 23.3554 48.7 23.4555 48.5977 23.5799C48.036 24.3315 45.2317 28.1883 45.2317 30.3009C45.2182 31.2611 45.5195 32.1992 46.0894 32.9718C46.6593 33.7444 47.4665 34.3088 48.3874 34.5788ZM49.4393 26.0357C50.4859 27.6009 51.5431 29.482 51.5431 30.3009C51.5486 30.6966 51.4553 31.0873 51.2716 31.4377C51.0879 31.7881 50.8196 32.087 50.4912 32.3072V30.5262C50.4912 30.247 50.3803 29.9793 50.1831 29.7819C49.9858 29.5845 49.7182 29.4736 49.4393 29.4736C49.1603 29.4736 48.8927 29.5845 48.6955 29.7819C48.4982 29.9793 48.3874 30.247 48.3874 30.5262V32.3072C48.0589 32.087 47.7906 31.7881 47.6069 31.4377C47.4232 31.0873 47.3299 30.6966 47.3355 30.3009C47.3355 29.482 48.3926 27.6009 49.4393 26.0357Z" fill="black"/>
<path d="M69.9454 9.8866C69.9623 9.71663 69.9436 9.54497 69.8907 9.38276C69.8377 9.22054 69.7515 9.0714 69.6378 8.945C69.5241 8.8186 69.3853 8.71777 69.2306 8.64905C69.0758 8.58034 68.9085 8.54527 68.7394 8.54613H44.6203C44.4518 8.54613 44.2851 8.58182 44.1311 8.65091C43.977 8.72001 43.839 8.82096 43.726 8.94726C43.6129 9.07357 43.5273 9.22242 43.4747 9.38421C43.422 9.546 43.4035 9.71715 43.4204 9.8866L44.0234 15.9797L45.7117 33.0293C45.352 32.9588 44.9867 32.9216 44.6203 32.9184H37.3846C36.9693 32.9749 36.5468 32.9413 36.1454 32.8196C35.7441 32.6979 35.373 32.491 35.0571 32.2128C34.8353 31.803 34.7828 31.3211 34.9112 30.8723C34.997 30.6119 34.9934 30.3298 34.9007 30.0717C34.8081 29.8136 34.632 29.5947 34.4008 29.4504C34.1697 29.3062 33.8972 29.245 33.6273 29.2768C33.3575 29.3086 33.1062 29.4315 32.9141 29.6257L32.1701 30.3776C30.7988 31.6911 29.2187 32.7622 27.4958 33.546C26.6681 33.9537 25.9448 34.5491 25.3823 35.2857C24.8198 36.0224 24.4333 36.8804 24.253 37.7928H24.1191V29.2625C24.1191 28.2929 23.7379 27.3631 23.0594 26.6775C22.381 25.9919 21.4607 25.6067 20.5012 25.6067H19.2953V17.0764C19.2953 16.7532 19.1682 16.4433 18.9421 16.2147C18.7159 15.9862 18.4092 15.8578 18.0893 15.8578H16.8834V10.9834C16.8834 10.6602 16.7563 10.3502 16.5302 10.1217C16.304 9.89313 15.9973 9.76474 15.6774 9.76474H13.2655V6.1089H26.531C26.7841 6.1089 27.0308 6.02843 27.2361 5.87888C27.4415 5.72933 27.595 5.51829 27.6751 5.27565C27.7551 5.03301 27.7576 4.77107 27.6821 4.52694C27.6066 4.28281 27.4571 4.06886 27.2546 3.9154L22.4308 0.243722C22.2218 0.0859896 21.968 0.000523856 21.7072 0L8.44168 0.015842C8.12184 0.015842 7.81511 0.144231 7.58894 0.372765C7.36278 0.6013 7.23573 0.911258 7.23573 1.23445V4.89029C7.23573 5.21349 7.36278 5.52345 7.58894 5.75198C7.81511 5.98051 8.12184 6.1089 8.44168 6.1089H10.8536V9.76474H8.44168C8.12184 9.76474 7.81511 9.89313 7.58894 10.1217C7.36278 10.3502 7.23573 10.6602 7.23573 10.9834V15.8578H6.02977C5.70993 15.8578 5.4032 15.9862 5.17704 16.2147C4.95087 16.4433 4.82382 16.7532 4.82382 17.0764V25.6067H3.61786C2.65835 25.6067 1.73813 25.9919 1.05965 26.6775C0.381167 27.3631 0 28.2929 0 29.2625V62.1651C0 63.1347 0.381167 64.0645 1.05965 64.7501C1.73813 65.4357 2.65835 65.8209 3.61786 65.8209H20.5012C20.9042 65.8119 21.3028 65.7332 21.6794 65.5881C22.0739 65.7384 22.4916 65.8172 22.9131 65.8209H61.5037C62.4632 65.8209 63.3834 65.4357 64.0619 64.7501C64.7404 64.0645 65.1216 63.1347 65.1216 62.1651V58.5714L69.3424 15.9797L69.9454 9.8866ZM9.64764 2.45307L21.3044 2.43844L22.9252 3.67168H9.64764V2.45307ZM67.4129 10.9834L67.0511 14.6392H46.3147L45.9529 10.9834H67.4129ZM24.1191 42.6673V40.23H50.6501V42.6673H24.1191ZM28.5582 35.7273C30.0601 35.0153 31.4763 34.1317 32.7791 33.0939C32.8674 33.2814 32.9723 33.4604 33.0926 33.6288C33.6158 34.2468 34.2798 34.727 35.0276 35.0278C35.7753 35.3286 36.5842 35.4411 37.3846 35.3556H44.6203C45.2692 35.3578 45.9053 35.5381 46.4606 35.8772C46.4678 35.8772 46.4715 35.8906 46.4799 35.8954C47.0155 36.2202 47.4601 36.6778 47.7715 37.2249C47.8625 37.4074 47.938 37.5974 47.997 37.7928H26.7348C27.0489 36.8881 27.7044 36.1455 28.5582 35.7273ZM9.64764 12.202H14.4715V15.8578H9.64764V12.202ZM7.23573 18.295H16.8834V25.6067H7.23573V18.295ZM3.61786 63.3837C3.29803 63.3837 2.99129 63.2553 2.76513 63.0268C2.53897 62.7982 2.41191 62.4883 2.41191 62.1651V29.2625C2.41191 28.9393 2.53897 28.6294 2.76513 28.4008C2.99129 28.1723 3.29803 28.0439 3.61786 28.0439H20.5012C20.8211 28.0439 21.1278 28.1723 21.354 28.4008C21.5801 28.6294 21.7072 28.9393 21.7072 29.2625V42.8757C21.004 43.1313 20.3956 43.5991 19.9642 44.2157C19.5328 44.8324 19.2993 45.568 19.2953 46.3231V62.1651C19.3112 62.579 19.3821 62.9889 19.5063 63.3837H3.61786ZM22.1823 63.1095C22.0349 63.0012 21.915 62.8592 21.8324 62.695C21.7498 62.5308 21.7069 62.3492 21.7072 62.1651V46.3231C21.7072 45.9999 21.8342 45.6899 22.0604 45.4614C22.2866 45.2329 22.5933 45.1045 22.9131 45.1045H51.8561C52.1759 45.1045 52.4826 45.2329 52.7088 45.4614C52.935 45.6899 53.062 45.9999 53.062 46.3231V62.1651C53.062 62.4883 52.935 62.7982 52.7088 63.0268C52.4826 63.2553 52.1759 63.3837 51.8561 63.3837H22.9131C22.6459 63.3784 22.3882 63.2818 22.1823 63.1095ZM62.7096 62.1651C62.7096 62.4883 62.5826 62.7982 62.3564 63.0268C62.1303 63.2553 61.8235 63.3837 61.5037 63.3837H55.2677C55.399 62.9909 55.4686 62.5797 55.4739 62.1651V59.7278H62.7096V62.1651ZM62.8242 57.2906H55.4739V46.3231C55.4598 45.5705 55.2224 44.8395 54.7923 44.2248C54.3623 43.6101 53.7595 43.1401 53.062 42.8757V39.0114C53.062 38.6882 52.935 38.3783 52.7088 38.1497C52.4826 37.9212 52.1759 37.7928 51.8561 37.7928H50.5295C50.203 36.3543 49.3975 35.0728 48.2478 34.1626L46.5559 17.0764H66.8099L62.8242 57.2906Z" fill="black"/>
<path d="M30.5398 5.22842C30.6534 7.05894 31.0658 8.42104 31.557 8.42104C32.0483 8.42104 32.4606 7.05894 32.5742 5.22842C34.4035 5.11473 35.7646 4.70315 35.7646 4.21052C35.7646 3.71789 34.4035 3.30631 32.5742 3.19263C32.4606 1.3621 32.0493 0 31.557 0C31.0647 0 30.6534 1.3621 30.5398 3.19263C28.7106 3.30631 27.3494 3.71789 27.3494 4.21052C27.3494 4.70315 28.7106 5.11473 30.5398 5.22842ZM21.038 21.0526C21.038 21.5452 22.3992 21.9568 24.2284 22.0705C24.342 23.901 24.7544 25.2631 25.2456 25.2631C25.7369 25.2631 26.1492 23.901 26.2628 22.0705C28.0921 21.9568 29.4532 21.5452 29.4532 21.0526C29.4532 20.56 28.0921 20.1484 26.2628 20.0347C26.1492 18.2042 25.7379 16.8421 25.2456 16.8421C24.7533 16.8421 24.342 18.2042 24.2284 20.0347C22.3992 20.1484 21.038 20.56 21.038 21.0526ZM54.7335 5.22842C54.8471 7.05894 55.2595 8.42104 55.7507 8.42104C56.242 8.42104 56.6543 7.05894 56.7679 5.22842C58.5972 5.11473 59.9583 4.70315 59.9583 4.21052C59.9583 3.71789 58.5972 3.30631 56.7679 3.19263C56.6543 1.3621 56.243 0 55.7507 0C55.2584 0 54.8471 1.3621 54.7335 3.19263C52.9043 3.30631 51.5431 3.71789 51.5431 4.21052C51.5431 4.70315 52.9043 5.11473 54.7335 5.22842Z" fill="black"/>
</svg>
