<svg width="21" height="20" viewBox="0 0 21 20" fill="none" xmlns="http://www.w3.org/2000/svg">
<path d="M20.7488 7.64095C20.8487 7.14095 20.449 6.54095 19.9494 6.54095L14.2533 5.74095L11.6551 0.540954C11.5552 0.340954 11.4553 0.240954 11.2554 0.140954C10.7558 -0.159046 10.1562 0.0409541 9.85638 0.540954L7.35812 5.74095L1.66207 6.54095C1.36228 6.54095 1.16242 6.64095 1.06249 6.84095C0.662765 7.24095 0.662765 7.84095 1.06249 8.24095L5.15964 12.241L4.16034 17.941C4.16034 18.141 4.16034 18.341 4.26027 18.541C4.56006 19.041 5.15964 19.241 5.6593 18.941L10.7558 16.241L15.8522 18.941C15.9521 19.041 16.152 19.041 16.3519 19.041C16.4518 19.041 16.4518 19.041 16.5517 19.041C17.0514 18.941 17.4511 18.441 17.3512 17.841L16.3519 12.141L20.449 8.14095C20.6489 8.04095 20.7488 7.84095 20.7488 7.64095ZM14.5531 11.141C14.3533 11.341 14.2533 11.741 14.2533 12.041L14.9528 16.241L11.1555 14.241C11.0555 14.141 10.8557 14.141 10.6558 14.141V3.24095L12.5545 7.04095C12.6544 7.34095 12.9542 7.54095 13.354 7.54095L17.551 8.14095L14.5531 11.141Z" fill="#FFD700"/>
</svg>
