<svg width="21" height="20" viewBox="0 0 21 20" fill="none" xmlns="http://www.w3.org/2000/svg">
<path d="M20.7696 7.64095C20.8696 7.14095 20.4698 6.54095 19.9702 6.54095L14.2741 5.74095L11.6759 0.540954C11.576 0.340954 11.4761 0.240954 11.2762 0.140954C10.7766 -0.159046 10.177 0.0409541 9.87719 0.540954L7.37893 5.74095L1.68288 6.54095C1.38309 6.54095 1.18323 6.64095 1.0833 6.84095C0.683578 7.24095 0.683578 7.84095 1.0833 8.24095L5.18046 12.241L4.18115 17.941C4.18115 18.141 4.18115 18.341 4.28108 18.541C4.58087 19.041 5.18046 19.241 5.68011 18.941L10.7766 16.241L15.873 18.941C15.973 19.041 16.1728 19.041 16.3727 19.041C16.4726 19.041 16.4726 19.041 16.5725 19.041C17.0722 18.941 17.4719 18.441 17.372 17.841L16.3727 12.141L20.4698 8.14095C20.6697 8.04095 20.7696 7.84095 20.7696 7.64095Z" fill="#FFD700"/>
</svg>
