<svg width="20" height="32" viewBox="0 0 20 32" fill="none" xmlns="http://www.w3.org/2000/svg">
<path d="M12.4738 15.9328L1.71384 5.18095C1.14772 4.61188 0.829958 3.84208 0.829958 3.03968C0.829958 2.23728 1.14772 1.46748 1.71384 0.898416C1.9964 0.613739 2.33258 0.387783 2.70298 0.233585C3.07337 0.0793879 3.47066 0 3.87191 0C4.27317 0 4.67046 0.0793879 5.04086 0.233585C5.41125 0.387783 5.74743 0.613739 6.02999 0.898416L18.9177 13.7764C19.2026 14.0587 19.4287 14.3947 19.583 14.7648C19.7373 15.1349 19.8168 15.5319 19.8168 15.9328C19.8168 16.3338 19.7373 16.7308 19.583 17.1009C19.4287 17.471 19.2026 17.8069 18.9177 18.0893L6.02999 31.1191C5.74598 31.4006 5.40915 31.6233 5.03882 31.7745C4.66849 31.9256 4.27194 32.0023 3.87191 31.9999C3.47189 32.0023 3.07534 31.9256 2.70501 31.7745C2.33468 31.6233 1.99785 31.4006 1.71384 31.1191C1.14772 30.5501 0.829958 29.7803 0.829958 28.9779C0.829958 28.1755 1.14772 27.4057 1.71384 26.8366L12.4738 15.9328Z" fill="white"/>
</svg>
