<svg width="21" height="19" viewBox="0 0 21 19" fill="none" xmlns="http://www.w3.org/2000/svg">
<path d="M20.5175 7.18359C20.4545 7.00195 20.3399 6.84241 20.1875 6.72432C20.0352 6.60623 19.8517 6.53465 19.6593 6.51827L13.981 5.69406L11.4362 0.56017C11.3545 0.39228 11.2269 0.250689 11.0681 0.151617C10.9092 0.0525454 10.7255 0 10.5381 0C10.3506 0 10.1669 0.0525454 10.0081 0.151617C9.84922 0.250689 9.72163 0.39228 9.63991 0.56017L7.09514 5.68413L1.41682 6.51827C1.23212 6.54439 1.05848 6.6215 0.9156 6.74086C0.77272 6.86022 0.666323 7.01703 0.608482 7.19352C0.555535 7.36598 0.550784 7.54953 0.594738 7.72448C0.638691 7.89942 0.72969 8.05915 0.857969 8.18653L4.97949 12.1586L3.98154 17.7989C3.94125 17.986 3.95615 18.1807 4.02444 18.3596C4.09273 18.5385 4.21151 18.6939 4.36648 18.8072C4.52146 18.9205 4.70603 18.9869 4.89799 18.9982C5.08995 19.0096 5.28113 18.9656 5.44853 18.8714L10.5381 16.22L15.6276 18.8714C15.7677 18.95 15.9258 18.9911 16.0867 18.9905C16.298 18.9913 16.5042 18.9252 16.6754 18.8019C16.8303 18.6915 16.9501 18.5394 17.0209 18.3634C17.0916 18.1875 17.1102 17.995 17.0746 17.8089L16.0767 12.1685L20.1982 8.19646C20.3423 8.075 20.4488 7.91534 20.5053 7.73605C20.5618 7.55676 20.5661 7.36518 20.5175 7.18359ZM10.5381 14L6.31674 16.1505L7.03526 11.9799C7.06145 11.8218 7.0488 11.6597 6.99841 11.5076C6.94801 11.3554 6.86137 11.2176 6.74586 11.106L3.75202 8.12695L7.95338 7.52121C8.11504 7.49884 8.26873 7.43735 8.40096 7.34213C8.53319 7.24691 8.63992 7.12087 8.71182 6.97505L10.558 2.5L10.5381 14ZM14.3303 11.106C14.2148 11.2176 14.1281 11.3554 14.0777 11.5076C14.0273 11.6597 14.0147 11.8218 14.0409 11.9799L14.7594 16.1505L10.558 14V2.5L12.4142 7.03464C12.4861 7.18045 12.5928 7.30649 12.7251 7.40171C12.8573 7.49693 13.011 7.55842 13.1726 7.58079L17.374 8.18653L14.3303 11.106Z" fill="#FFD700"/>
</svg>
